<?xml version="1.0" encoding="utf-8" standalone="no"?>
<!DOCTYPE svg PUBLIC "-//W3C//DTD SVG 1.1//EN"
  "http://www.w3.org/Graphics/SVG/1.1/DTD/svg11.dtd">
<svg xmlns:xlink="http://www.w3.org/1999/xlink" width="576pt" height="360pt" viewBox="0 0 576 360" xmlns="http://www.w3.org/2000/svg" version="1.1">
 <metadata>
  <rdf:RDF xmlns:dc="http://purl.org/dc/elements/1.1/" xmlns:cc="http://creativecommons.org/ns#" xmlns:rdf="http://www.w3.org/1999/02/22-rdf-syntax-ns#">
   <cc:Work>
    <dc:type rdf:resource="http://purl.org/dc/dcmitype/StillImage"/>
    <dc:date>2023-09-09T16:45:29.959952</dc:date>
    <dc:format>image/svg+xml</dc:format>
    <dc:creator>
     <cc:Agent>
      <dc:title>Matplotlib v3.7.2, https://matplotlib.org/</dc:title>
     </cc:Agent>
    </dc:creator>
   </cc:Work>
  </rdf:RDF>
 </metadata>
 <defs>
  <style type="text/css">*{stroke-linejoin: round; stroke-linecap: butt}</style>
 </defs>
 <g id="figure_1">
  <g id="patch_1">
   <path d="M 0 360 
L 576 360 
L 576 0 
L 0 0 
z
" style="fill: #ffffff"/>
  </g>
  <g id="axes_1">
   <g id="patch_2">
    <path d="M 72 320.4 
L 518.4 320.4 
L 518.4 43.2 
L 72 43.2 
z
" style="fill: #ffffff"/>
   </g>
   <g id="matplotlib.axis_1">
    <g id="xtick_1">
     <g id="line2d_1">
      <defs>
       <path id="mde1297e93a" d="M 0 0 
L 0 3.5 
" style="stroke: #000000; stroke-width: 0.8"/>
      </defs>
      <g>
       <use xlink:href="#mde1297e93a" x="92.290909" y="320.4" style="stroke: #000000; stroke-width: 0.8"/>
      </g>
     </g>
     <g id="text_1">
      <!-- 0 -->
      <g transform="translate(89.790909 334.275) scale(0.1 -0.1)">
       <defs>
        <path id="SimHei-30" d="M 225 2537 
Q 250 3200 412 3587 
Q 575 3975 875 4225 
Q 1175 4475 1612 4475 
Q 2050 4475 2375 4112 
Q 2700 3750 2800 3200 
Q 2900 2650 2862 1937 
Q 2825 1225 2612 775 
Q 2400 325 1975 150 
Q 1550 -25 1125 187 
Q 700 400 525 750 
Q 350 1100 275 1487 
Q 200 1875 225 2537 
z
M 750 2687 
Q 675 2000 800 1462 
Q 925 925 1212 700 
Q 1500 475 1800 612 
Q 2100 750 2237 1162 
Q 2375 1575 2375 2062 
Q 2375 2550 2337 2950 
Q 2300 3350 2112 3675 
Q 1925 4000 1612 4012 
Q 1300 4025 1062 3700 
Q 825 3375 750 2687 
z
" transform="scale(0.015625)"/>
       </defs>
       <use xlink:href="#SimHei-30"/>
      </g>
     </g>
    </g>
    <g id="xtick_2">
     <g id="line2d_2">
      <g>
       <use xlink:href="#mde1297e93a" x="162.990941" y="320.4" style="stroke: #000000; stroke-width: 0.8"/>
      </g>
     </g>
     <g id="text_2">
      <!-- 50 -->
      <g transform="translate(157.990941 334.275) scale(0.1 -0.1)">
       <defs>
        <path id="SimHei-35" d="M 550 1325 
Q 725 650 1150 575 
Q 1575 500 1837 662 
Q 2100 825 2212 1087 
Q 2325 1350 2312 1675 
Q 2300 2000 2137 2225 
Q 1975 2450 1725 2525 
Q 1475 2600 1162 2525 
Q 850 2450 650 2175 
L 225 2225 
Q 275 2375 700 4375 
L 2675 4375 
L 2675 3925 
L 1075 3925 
Q 950 3250 825 2850 
Q 1200 3025 1525 3012 
Q 1850 3000 2150 2862 
Q 2450 2725 2587 2487 
Q 2725 2250 2787 2012 
Q 2850 1775 2837 1500 
Q 2825 1225 2725 937 
Q 2625 650 2425 462 
Q 2225 275 1937 162 
Q 1650 50 1275 75 
Q 900 100 562 350 
Q 225 600 100 1200 
L 550 1325 
z
" transform="scale(0.015625)"/>
       </defs>
       <use xlink:href="#SimHei-35"/>
       <use xlink:href="#SimHei-30" x="50"/>
      </g>
     </g>
    </g>
    <g id="xtick_3">
     <g id="line2d_3">
      <g>
       <use xlink:href="#mde1297e93a" x="233.690972" y="320.4" style="stroke: #000000; stroke-width: 0.8"/>
      </g>
     </g>
     <g id="text_3">
      <!-- 100 -->
      <g transform="translate(226.190972 334.275) scale(0.1 -0.1)">
       <defs>
        <path id="SimHei-31" d="M 1400 3600 
Q 1075 3275 575 2975 
L 575 3450 
Q 1200 3875 1600 4450 
L 1900 4450 
L 1900 150 
L 1400 150 
L 1400 3600 
z
" transform="scale(0.015625)"/>
       </defs>
       <use xlink:href="#SimHei-31"/>
       <use xlink:href="#SimHei-30" x="50"/>
       <use xlink:href="#SimHei-30" x="100"/>
      </g>
     </g>
    </g>
    <g id="xtick_4">
     <g id="line2d_4">
      <g>
       <use xlink:href="#mde1297e93a" x="304.391004" y="320.4" style="stroke: #000000; stroke-width: 0.8"/>
      </g>
     </g>
     <g id="text_4">
      <!-- 150 -->
      <g transform="translate(296.891004 334.275) scale(0.1 -0.1)">
       <use xlink:href="#SimHei-31"/>
       <use xlink:href="#SimHei-35" x="50"/>
       <use xlink:href="#SimHei-30" x="100"/>
      </g>
     </g>
    </g>
    <g id="xtick_5">
     <g id="line2d_5">
      <g>
       <use xlink:href="#mde1297e93a" x="375.091036" y="320.4" style="stroke: #000000; stroke-width: 0.8"/>
      </g>
     </g>
     <g id="text_5">
      <!-- 200 -->
      <g transform="translate(367.591036 334.275) scale(0.1 -0.1)">
       <defs>
        <path id="SimHei-32" d="M 300 250 
Q 325 625 650 925 
Q 975 1225 1475 1862 
Q 1975 2500 2125 2850 
Q 2275 3200 2237 3450 
Q 2200 3700 2000 3862 
Q 1800 4025 1537 4000 
Q 1275 3975 1037 3800 
Q 800 3625 675 3275 
L 200 3350 
Q 400 3925 712 4187 
Q 1025 4450 1450 4475 
Q 1700 4500 1900 4462 
Q 2100 4425 2312 4287 
Q 2525 4150 2662 3875 
Q 2800 3600 2762 3212 
Q 2725 2825 2375 2287 
Q 2025 1750 1025 600 
L 2825 600 
L 2825 150 
L 300 150 
L 300 250 
z
" transform="scale(0.015625)"/>
       </defs>
       <use xlink:href="#SimHei-32"/>
       <use xlink:href="#SimHei-30" x="50"/>
       <use xlink:href="#SimHei-30" x="100"/>
      </g>
     </g>
    </g>
    <g id="xtick_6">
     <g id="line2d_6">
      <g>
       <use xlink:href="#mde1297e93a" x="445.791067" y="320.4" style="stroke: #000000; stroke-width: 0.8"/>
      </g>
     </g>
     <g id="text_6">
      <!-- 250 -->
      <g transform="translate(438.291067 334.275) scale(0.1 -0.1)">
       <use xlink:href="#SimHei-32"/>
       <use xlink:href="#SimHei-35" x="50"/>
       <use xlink:href="#SimHei-30" x="100"/>
      </g>
     </g>
    </g>
    <g id="xtick_7">
     <g id="line2d_7">
      <g>
       <use xlink:href="#mde1297e93a" x="516.491099" y="320.4" style="stroke: #000000; stroke-width: 0.8"/>
      </g>
     </g>
     <g id="text_7">
      <!-- 300 -->
      <g transform="translate(508.991099 334.275) scale(0.1 -0.1)">
       <defs>
        <path id="SimHei-33" d="M 250 1225 
L 700 1300 
Q 800 975 1025 762 
Q 1250 550 1587 562 
Q 1925 575 2125 837 
Q 2325 1100 2300 1437 
Q 2275 1775 2037 1962 
Q 1800 2150 1275 2225 
L 1275 2550 
Q 1800 2600 2037 2825 
Q 2275 3050 2250 3412 
Q 2225 3775 1925 3937 
Q 1625 4100 1287 3975 
Q 950 3850 750 3275 
L 300 3350 
Q 450 3800 712 4100 
Q 975 4400 1425 4450 
Q 1875 4500 2212 4337 
Q 2550 4175 2687 3837 
Q 2825 3500 2725 3100 
Q 2625 2700 2150 2400 
Q 2500 2250 2687 1950 
Q 2875 1650 2812 1162 
Q 2750 675 2375 375 
Q 2000 75 1525 87 
Q 1050 100 700 387 
Q 350 675 250 1225 
z
" transform="scale(0.015625)"/>
       </defs>
       <use xlink:href="#SimHei-33"/>
       <use xlink:href="#SimHei-30" x="50"/>
       <use xlink:href="#SimHei-30" x="100"/>
      </g>
     </g>
    </g>
   </g>
   <g id="matplotlib.axis_2">
    <g id="ytick_1">
     <g id="line2d_8">
      <defs>
       <path id="m5b260e521d" d="M 0 0 
L -3.5 0 
" style="stroke: #000000; stroke-width: 0.8"/>
      </defs>
      <g>
       <use xlink:href="#m5b260e521d" x="72" y="286.220795" style="stroke: #000000; stroke-width: 0.8"/>
      </g>
     </g>
     <g id="text_8">
      <!-- 100 -->
      <g transform="translate(50 289.658295) scale(0.1 -0.1)">
       <use xlink:href="#SimHei-31"/>
       <use xlink:href="#SimHei-30" x="50"/>
       <use xlink:href="#SimHei-30" x="100"/>
      </g>
     </g>
    </g>
    <g id="ytick_2">
     <g id="line2d_9">
      <g>
       <use xlink:href="#m5b260e521d" x="72" y="249.819406" style="stroke: #000000; stroke-width: 0.8"/>
      </g>
     </g>
     <g id="text_9">
      <!-- 200 -->
      <g transform="translate(50 253.256906) scale(0.1 -0.1)">
       <use xlink:href="#SimHei-32"/>
       <use xlink:href="#SimHei-30" x="50"/>
       <use xlink:href="#SimHei-30" x="100"/>
      </g>
     </g>
    </g>
    <g id="ytick_3">
     <g id="line2d_10">
      <g>
       <use xlink:href="#m5b260e521d" x="72" y="213.418018" style="stroke: #000000; stroke-width: 0.8"/>
      </g>
     </g>
     <g id="text_10">
      <!-- 300 -->
      <g transform="translate(50 216.855518) scale(0.1 -0.1)">
       <use xlink:href="#SimHei-33"/>
       <use xlink:href="#SimHei-30" x="50"/>
       <use xlink:href="#SimHei-30" x="100"/>
      </g>
     </g>
    </g>
    <g id="ytick_4">
     <g id="line2d_11">
      <g>
       <use xlink:href="#m5b260e521d" x="72" y="177.016629" style="stroke: #000000; stroke-width: 0.8"/>
      </g>
     </g>
     <g id="text_11">
      <!-- 400 -->
      <g transform="translate(50 180.454129) scale(0.1 -0.1)">
       <defs>
        <path id="SimHei-34" d="M 2000 1100 
L 75 1100 
L 75 1525 
L 2100 4450 
L 2475 4450 
L 2475 1525 
L 3075 1525 
L 3075 1100 
L 2475 1100 
L 2475 150 
L 2000 150 
L 2000 1100 
z
M 2000 1525 
L 2000 3500 
L 600 1525 
L 2000 1525 
z
" transform="scale(0.015625)"/>
       </defs>
       <use xlink:href="#SimHei-34"/>
       <use xlink:href="#SimHei-30" x="50"/>
       <use xlink:href="#SimHei-30" x="100"/>
      </g>
     </g>
    </g>
    <g id="ytick_5">
     <g id="line2d_12">
      <g>
       <use xlink:href="#m5b260e521d" x="72" y="140.615241" style="stroke: #000000; stroke-width: 0.8"/>
      </g>
     </g>
     <g id="text_12">
      <!-- 500 -->
      <g transform="translate(50 144.052741) scale(0.1 -0.1)">
       <use xlink:href="#SimHei-35"/>
       <use xlink:href="#SimHei-30" x="50"/>
       <use xlink:href="#SimHei-30" x="100"/>
      </g>
     </g>
    </g>
    <g id="ytick_6">
     <g id="line2d_13">
      <g>
       <use xlink:href="#m5b260e521d" x="72" y="104.213852" style="stroke: #000000; stroke-width: 0.8"/>
      </g>
     </g>
     <g id="text_13">
      <!-- 600 -->
      <g transform="translate(50 107.651352) scale(0.1 -0.1)">
       <defs>
        <path id="SimHei-36" d="M 250 1612 
Q 275 1975 387 2225 
Q 500 2475 725 2850 
L 1750 4450 
L 2325 4450 
L 1275 2800 
Q 1950 2975 2350 2750 
Q 2750 2525 2887 2237 
Q 3025 1950 3037 1612 
Q 3050 1275 2937 950 
Q 2825 625 2537 362 
Q 2250 100 1737 75 
Q 1225 50 862 262 
Q 500 475 362 862 
Q 225 1250 250 1612 
z
M 1025 787 
Q 1250 550 1625 525 
Q 2000 500 2250 775 
Q 2500 1050 2500 1575 
Q 2500 2100 2187 2300 
Q 1875 2500 1487 2450 
Q 1100 2400 925 2075 
Q 750 1750 775 1387 
Q 800 1025 1025 787 
z
" transform="scale(0.015625)"/>
       </defs>
       <use xlink:href="#SimHei-36"/>
       <use xlink:href="#SimHei-30" x="50"/>
       <use xlink:href="#SimHei-30" x="100"/>
      </g>
     </g>
    </g>
    <g id="ytick_7">
     <g id="line2d_14">
      <g>
       <use xlink:href="#m5b260e521d" x="72" y="67.812464" style="stroke: #000000; stroke-width: 0.8"/>
      </g>
     </g>
     <g id="text_14">
      <!-- 700 -->
      <g transform="translate(50 71.249964) scale(0.1 -0.1)">
       <defs>
        <path id="SimHei-37" d="M 850 150 
Q 1300 2050 2425 3925 
L 275 3925 
L 275 4375 
L 2950 4375 
L 2950 3950 
Q 1775 2050 1400 150 
L 850 150 
z
" transform="scale(0.015625)"/>
       </defs>
       <use xlink:href="#SimHei-37"/>
       <use xlink:href="#SimHei-30" x="50"/>
       <use xlink:href="#SimHei-30" x="100"/>
      </g>
     </g>
    </g>
   </g>
   <g id="line2d_15">
    <path d="M 92.290909 262.923907 
L 93.70491 258.919752 
L 95.11891 264.015947 
L 96.532911 268.384113 
L 97.946912 255.643629 
L 99.360912 264.743974 
L 100.774913 247.999335 
L 103.602914 275.664392 
L 105.016915 273.116296 
L 106.430915 279.668547 
L 107.844916 281.124602 
L 109.258917 261.467851 
L 110.672917 289.860934 
L 112.086918 273.116296 
L 113.500919 281.124602 
L 114.914919 281.124602 
L 116.32892 283.308686 
L 117.74292 278.212491 
L 119.156921 288.768892 
L 120.570922 268.748129 
L 121.984922 281.488614 
L 123.398923 293.137059 
L 124.812924 267.656086 
L 126.226924 284.764741 
L 127.640925 288.404878 
L 129.054926 283.308686 
L 130.468926 276.392419 
L 131.882927 282.216642 
L 133.296927 284.400725 
L 134.710928 285.856781 
L 136.124929 300.053323 
L 137.538929 293.137059 
L 138.95293 290.952976 
L 140.366931 295.685156 
L 141.780931 293.501073 
L 143.194932 301.145365 
L 144.608933 295.685156 
L 146.022933 300.053323 
L 147.436934 306.969587 
L 148.850934 297.505226 
L 150.264935 304.42149 
L 151.678936 295.685156 
L 153.092936 295.321143 
L 154.506937 298.961282 
L 155.920938 296.04917 
L 157.334938 297.86924 
L 158.748939 300.417337 
L 160.162939 295.685156 
L 161.57694 302.237407 
L 162.990941 293.137059 
L 164.404941 298.597268 
L 165.818942 288.768892 
L 167.232943 288.768892 
L 168.646943 278.212491 
L 170.060944 282.216642 
L 171.474945 268.384113 
L 172.888945 272.388268 
L 174.302946 257.827712 
L 175.716946 274.572352 
L 177.130947 271.296225 
L 178.544948 256.371657 
L 179.958948 247.999335 
L 181.372949 243.631168 
L 182.78695 250.911446 
L 184.20095 230.526667 
L 185.614951 219.970266 
L 187.028952 208.321821 
L 188.442952 201.769575 
L 189.856953 212.689988 
L 191.270953 205.40971 
L 192.684954 204.317674 
L 194.098955 190.849153 
L 195.512955 191.577185 
L 196.926956 187.209018 
L 198.340957 175.924585 
L 199.754957 149.351572 
L 201.168958 150.079596 
L 202.582959 141.707291 
L 203.996959 99.845681 
L 205.41096 102.029768 
L 206.82496 103.849844 
L 208.238961 100.209692 
L 209.652962 110.40209 
L 211.066962 99.481669 
L 212.480963 116.590325 
L 213.894964 119.502436 
L 215.308964 112.586178 
L 216.722965 103.849844 
L 218.136965 105.669903 
L 219.550966 97.66161 
L 220.964967 80.916966 
L 222.378967 95.11351 
L 223.792968 78.732878 
L 225.206969 91.473359 
L 226.620969 85.649136 
L 228.03497 91.473359 
L 229.448971 114.770249 
L 230.862971 101.665757 
L 232.276972 84.921113 
L 233.690972 88.197236 
L 235.104973 98.389633 
L 236.518974 81.280978 
L 237.932974 102.39378 
L 239.346975 97.66161 
L 240.760976 97.66161 
L 242.174976 116.226313 
L 245.002978 132.970957 
L 246.416978 119.138424 
L 247.830979 121.322512 
L 249.244979 131.878905 
L 250.65898 134.791016 
L 252.072981 119.138424 
L 253.486981 128.23877 
L 254.900982 120.594471 
L 256.314983 128.966793 
L 257.728983 127.510746 
L 259.142984 126.782706 
L 260.556984 132.606928 
L 261.970985 130.786869 
L 263.384986 130.786869 
L 264.798986 134.062992 
L 266.212987 133.334969 
L 267.626988 102.029768 
L 269.040988 124.598635 
L 270.454989 123.506583 
L 271.86899 121.322512 
L 273.28299 100.937733 
L 274.696991 114.406237 
L 276.110991 123.142571 
L 277.524992 150.443607 
L 278.938993 135.519039 
L 280.352993 129.330805 
L 281.766994 122.050535 
L 283.180995 112.586178 
L 284.594995 114.406237 
L 286.008996 111.130114 
L 287.422997 112.586178 
L 288.836997 106.397944 
L 290.250998 116.226313 
L 291.664998 92.565411 
L 293.078999 131.514893 
L 294.493 122.050535 
L 295.907 124.234623 
L 297.321001 136.975103 
L 298.735002 138.067139 
L 300.149002 122.778559 
L 301.563003 110.038078 
L 302.977003 111.494126 
L 304.391004 115.498289 
L 305.805005 124.962647 
L 307.219005 103.849844 
L 308.633006 121.686524 
L 310.047007 118.046372 
L 311.461007 113.314202 
L 312.875008 116.590325 
L 314.289009 134.791016 
L 315.703009 129.330805 
L 317.11701 121.322512 
L 318.53101 127.874758 
L 319.945011 129.330805 
L 321.359012 128.23877 
L 322.773012 119.502436 
L 324.187013 136.24708 
L 325.601014 138.431151 
L 327.015014 129.330805 
L 328.429015 117.318348 
L 329.843016 107.125967 
L 331.257016 121.322512 
L 334.085017 101.665757 
L 335.499018 79.460902 
L 336.913019 102.757792 
L 338.327019 90.017311 
L 339.74102 92.201399 
L 341.155021 55.8 
L 342.569021 72.908656 
L 343.983022 94.021458 
L 345.397022 87.833224 
L 346.811023 115.862301 
L 348.225024 96.569558 
L 349.639024 89.6533 
L 351.053025 85.285124 
L 352.467026 75.456755 
L 353.881026 82.009001 
L 355.295027 98.025622 
L 356.709028 91.109347 
L 358.123028 70.360556 
L 359.537029 75.456755 
L 360.951029 63.80831 
L 362.36503 76.548791 
L 363.779031 102.029768 
L 365.193031 94.749499 
L 366.607032 109.674067 
L 368.021033 82.373013 
L 369.435033 84.921113 
L 370.849034 104.213856 
L 372.263035 99.845681 
L 373.677035 87.833224 
L 375.091036 98.025622 
L 376.505036 109.674067 
L 377.919037 111.130114 
L 379.333038 106.761955 
L 380.747038 83.101054 
L 382.161039 96.933569 
L 383.57504 116.226313 
L 384.98904 107.125967 
L 386.403041 86.741188 
L 387.817041 95.11351 
L 389.231042 123.870594 
L 390.645043 115.134261 
L 392.059043 115.862301 
L 393.473044 123.506583 
L 394.887045 147.167484 
L 396.301045 144.619402 
L 397.715046 119.866448 
L 399.129047 123.142571 
L 400.543047 104.577868 
L 401.957048 133.334969 
L 403.371048 108.582014 
L 404.785049 124.598635 
L 406.19905 123.870594 
L 407.61305 117.318348 
L 409.027051 109.674067 
L 410.441052 107.853991 
L 411.855052 112.222149 
L 413.269053 123.506583 
L 414.683054 137.339115 
L 416.097054 137.703127 
L 417.511055 131.514893 
L 418.925055 134.791016 
L 420.339056 119.138424 
L 421.753057 140.615238 
L 423.167057 150.807636 
L 424.581058 132.242916 
L 425.995059 140.615238 
L 427.409059 138.067139 
L 428.82306 162.820093 
L 430.237061 150.443607 
L 431.651061 158.815929 
L 433.065062 144.255373 
L 434.479062 139.523203 
L 435.893063 157.723894 
L 437.307064 166.82424 
L 438.721064 165.004164 
L 440.135065 168.644315 
L 441.549066 199.949507 
L 442.963066 198.857463 
L 444.377067 189.393098 
L 445.791067 185.024931 
L 447.205068 193.761265 
L 448.619069 210.505908 
L 450.033069 209.413865 
L 451.44707 212.689988 
L 452.861071 198.493452 
L 454.275071 193.761265 
L 455.689072 186.116975 
L 457.103073 212.689988 
L 458.517073 185.388951 
L 459.931074 201.769575 
L 461.345074 170.828386 
L 462.759075 218.878222 
L 464.173076 177.016637 
L 465.587076 197.037396 
L 467.001077 215.238087 
L 468.415078 186.845007 
L 469.829078 165.004164 
L 471.243079 179.200708 
L 472.65708 179.56472 
L 474.07108 197.037396 
L 475.485081 220.334278 
L 476.899081 207.957809 
L 478.313082 224.338433 
L 479.727083 230.890687 
L 481.141083 229.434632 
L 482.555084 243.995188 
L 483.969085 242.903144 
L 485.383085 226.52252 
L 486.797086 241.447088 
L 488.211086 248.363355 
L 489.625087 253.095529 
L 491.039088 260.375807 
L 492.453088 242.539132 
L 493.867089 237.806945 
L 495.28109 249.45539 
L 496.69509 279.668547 
L 498.109091 258.191724 
L 498.109091 258.191724 
" clip-path="url(#p50fb5a7bc0)" style="fill: none; stroke: #000000; stroke-width: 1.5; stroke-linecap: square"/>
   </g>
   <g id="line2d_16">
    <path d="M 92.290909 285.061385 
L 93.70491 287.820197 
L 95.11891 290.118152 
L 96.532911 291.588679 
L 97.946912 291.348216 
L 99.360912 293.011086 
L 100.774913 293.383045 
L 102.188914 296.702051 
L 103.602914 297.824662 
L 105.016915 299.22168 
L 106.430915 299.877305 
L 107.844916 300.039309 
L 109.258917 300.345469 
L 110.672917 303.061381 
L 112.086918 303.585949 
L 113.500919 304.404588 
L 114.914919 304.944141 
L 116.32892 304.823926 
L 117.74292 305.168306 
L 119.156921 306.486493 
L 120.570922 306.960079 
L 121.984922 306.119047 
L 123.398923 306.370117 
L 124.812924 305.845718 
L 126.226924 306.606775 
L 127.640925 306.489254 
L 129.054926 307.8 
L 130.468926 305.338492 
L 131.882927 307.562904 
L 133.296927 305.402708 
L 134.710928 306.959877 
L 137.538929 306.3552 
L 138.95293 305.762106 
L 140.366931 305.438537 
L 141.780931 304.702465 
L 143.194932 305.33462 
L 144.608933 306.202961 
L 146.022933 306.100661 
L 147.436934 305.678865 
L 150.264935 303.422497 
L 151.678936 301.383223 
L 153.092936 300.599032 
L 154.506937 298.609258 
L 155.920938 297.349494 
L 157.334938 294.194848 
L 158.748939 292.445033 
L 160.162939 290.914028 
L 161.57694 290.761049 
L 162.990941 290.171289 
L 164.404941 287.662234 
L 165.818942 283.564862 
L 167.232943 278.953058 
L 168.646943 273.805439 
L 170.060944 269.954659 
L 171.474945 264.024803 
L 172.888945 259.421417 
L 174.302946 252.827113 
L 175.716946 247.374748 
L 177.130947 247.097681 
L 178.544948 245.119996 
L 179.958948 244.394633 
L 181.372949 240.056023 
L 182.78695 231.808074 
L 184.20095 222.834156 
L 187.028952 211.875212 
L 188.442952 210.32232 
L 189.856953 198.60508 
L 191.270953 200.320245 
L 192.684954 199.781905 
L 194.098955 217.783316 
L 195.512955 212.845619 
L 196.926956 197.543738 
L 198.340957 175.234764 
L 199.754957 175.054493 
L 201.168958 173.42538 
L 202.582959 182.008246 
L 203.996959 182.012792 
L 205.41096 167.318956 
L 206.82496 154.633111 
L 209.652962 167.845611 
L 211.066962 172.245793 
L 213.894964 160.721856 
L 215.308964 139.826804 
L 216.722965 137.219608 
L 218.136965 146.149834 
L 220.964967 150.874748 
L 222.378967 140.495933 
L 223.792968 133.695596 
L 225.206969 137.570924 
L 226.620969 142.690863 
L 228.03497 147.093941 
L 229.448971 157.804896 
L 230.862971 144.836496 
L 232.276972 139.175961 
L 233.690972 129.346093 
L 235.104973 141.13819 
L 236.518974 144.842995 
L 237.932974 150.015431 
L 239.346975 153.699526 
L 240.760976 136.994516 
L 242.174976 142.98278 
L 243.588977 148.268629 
L 245.002978 157.813954 
L 246.416978 162.724595 
L 247.830979 153.829001 
L 249.244979 150.283489 
L 250.65898 147.172199 
L 252.072981 144.38633 
L 253.486981 158.068948 
L 254.900982 158.204063 
L 256.314983 153.719124 
L 257.728983 151.754404 
L 259.142984 152.964162 
L 260.556984 159.218295 
L 261.970985 168.650966 
L 263.384986 168.164012 
L 264.798986 171.058394 
L 266.212987 159.749042 
L 267.626988 153.726533 
L 269.040988 160.230289 
L 270.454989 169.309235 
L 271.86899 167.463196 
L 273.28299 162.475561 
L 274.696991 165.130204 
L 276.110991 168.862857 
L 277.524992 170.191921 
L 278.938993 173.442469 
L 280.352993 174.308016 
L 283.180995 165.31285 
L 284.594995 160.390003 
L 286.008996 171.965511 
L 287.422997 166.1705 
L 288.836997 161.617911 
L 290.250998 165.020462 
L 291.664998 162.520364 
L 293.078999 166.704109 
L 294.493 163.943529 
L 295.907 178.243283 
L 297.321001 175.245136 
L 298.735002 162.101767 
L 300.149002 152.967142 
L 301.563003 154.858909 
L 302.977003 164.779982 
L 304.391004 166.627939 
L 305.805005 167.212665 
L 307.219005 159.971861 
L 308.633006 160.606541 
L 310.047007 154.753948 
L 311.461007 159.657332 
L 312.875008 171.275757 
L 314.289009 167.50012 
L 315.703009 164.656686 
L 317.11701 152.110132 
L 318.53101 151.385206 
L 319.945011 152.247234 
L 321.359012 158.470051 
L 322.773012 159.796438 
L 324.187013 152.689419 
L 325.601014 144.914366 
L 327.015014 147.811694 
L 328.429015 160.621509 
L 329.843016 155.938738 
L 331.257016 156.39685 
L 334.085017 131.070098 
L 335.499018 140.633372 
L 336.913019 138.094061 
L 338.327019 147.742394 
L 339.74102 146.348593 
L 341.155021 141.913878 
L 342.569021 126.764084 
L 343.983022 127.137861 
L 345.397022 145.826012 
L 346.811023 151.232294 
L 348.225024 150.18986 
L 349.639024 139.32037 
L 351.053025 122.833868 
L 352.467026 132.242327 
L 353.881026 142.787692 
L 355.295027 136.595332 
L 356.709028 145.31094 
L 358.123028 137.786116 
L 359.537029 117.848034 
L 360.951029 132.159069 
L 362.36503 150.208683 
L 363.779031 154.424435 
L 365.193031 147.487754 
L 366.607032 134.995516 
L 368.021033 124.792393 
L 369.435033 133.369046 
L 370.849034 129.243523 
L 372.263035 159.806489 
L 373.677035 145.351012 
L 375.091036 137.813863 
L 376.505036 119.991478 
L 377.919037 136.600821 
L 379.333038 151.378943 
L 380.747038 146.204638 
L 382.161039 142.743865 
L 383.57504 136.141934 
L 384.98904 128.129684 
L 386.403041 130.936565 
L 387.817041 144.74098 
L 390.645043 145.733695 
L 392.059043 138.430578 
L 393.473044 141.550607 
L 394.887045 135.110881 
L 396.301045 146.27244 
L 397.715046 150.300848 
L 399.129047 154.918478 
L 400.543047 154.038822 
L 401.957048 135.89317 
L 403.371048 153.016693 
L 404.785049 148.95227 
L 406.19905 151.991028 
L 407.61305 158.223863 
L 409.027051 153.583908 
L 410.441052 158.627105 
L 411.855052 152.225817 
L 413.269053 161.745871 
L 414.683054 172.241735 
L 416.097054 161.640001 
L 417.511055 167.528035 
L 418.925055 162.461418 
L 420.339056 165.617933 
L 421.753057 177.046152 
L 423.167057 177.034114 
L 424.581058 182.390105 
L 425.995059 180.552283 
L 427.409059 178.027873 
L 428.82306 188.431859 
L 430.237061 188.750159 
L 431.651061 192.932725 
L 433.065062 197.705018 
L 434.479062 197.895509 
L 435.893063 189.747066 
L 437.307064 188.082748 
L 438.721064 205.770741 
L 440.135065 208.435789 
L 441.549066 212.889462 
L 442.963066 215.717945 
L 444.377067 213.21751 
L 445.791067 215.042957 
L 447.205068 198.646347 
L 448.619069 215.888535 
L 450.033069 219.937956 
L 451.44707 223.220965 
L 454.275071 231.129383 
L 455.689072 224.641554 
L 457.103073 222.403976 
L 458.517073 224.659502 
L 459.931074 224.239491 
L 461.345074 232.260783 
L 462.759075 233.307864 
L 464.173076 235.299658 
L 465.587076 240.320698 
L 467.001077 240.633054 
L 468.415078 252.259342 
L 469.829078 244.353012 
L 471.243079 245.545462 
L 472.65708 245.362648 
L 474.07108 238.67921 
L 475.485081 245.227886 
L 476.899081 251.055544 
L 478.313082 257.503738 
L 479.727083 257.910448 
L 481.141083 262.447093 
L 482.555084 263.357156 
L 483.969085 269.152352 
L 485.383085 273.931143 
L 486.797086 274.807735 
L 488.211086 273.743615 
L 489.625087 274.65186 
L 491.039088 275.155819 
L 492.453088 278.463275 
L 493.867089 283.956553 
L 495.28109 280.877067 
L 496.69509 281.417293 
L 498.109091 283.890991 
L 498.109091 283.890991 
" clip-path="url(#p50fb5a7bc0)" style="fill: none; stroke: #1f77b4; stroke-width: 1.5; stroke-linecap: square"/>
   </g>
   <g id="line2d_17">
    <path d="M 92.290909 245.388728 
L 93.70491 248.714975 
L 95.11891 257.636762 
L 96.532911 260.090432 
L 97.946912 262.091819 
L 99.360912 259.952278 
L 100.774913 259.712004 
L 102.188914 256.33145 
L 103.602914 256.140647 
L 105.016915 266.412927 
L 106.430915 271.977307 
L 107.844916 272.797538 
L 109.258917 275.948567 
L 110.672917 270.92906 
L 112.086918 275.285134 
L 113.500919 280.319302 
L 114.914919 278.240684 
L 116.32892 278.894066 
L 117.74292 281.630784 
L 119.156921 280.799433 
L 120.570922 282.634527 
L 121.984922 279.144842 
L 123.398923 276.523313 
L 124.812924 285.892479 
L 127.640925 276.628223 
L 129.054926 284.382962 
L 130.468926 286.827642 
L 131.882927 279.851462 
L 133.296927 278.88798 
L 134.710928 283.927447 
L 136.124929 285.522781 
L 137.538929 291.016391 
L 138.95293 294.217972 
L 140.366931 291.323413 
L 141.780931 292.277833 
L 144.608933 297.856206 
L 147.436934 297.966049 
L 148.850934 302.643546 
L 150.264935 302.405019 
L 153.092936 300.335371 
L 154.506937 297.808789 
L 155.920938 298.44384 
L 157.334938 298.876887 
L 158.748939 298.15897 
L 160.162939 299.163988 
L 161.57694 298.687201 
L 162.990941 299.453207 
L 164.404941 298.203537 
L 165.818942 297.256172 
L 167.232943 294.818955 
L 168.646943 291.190922 
L 170.060944 285.980207 
L 171.474945 283.164015 
L 174.302946 273.494565 
L 175.716946 267.577942 
L 177.130947 268.349897 
L 178.544948 272.639579 
L 179.958948 264.918214 
L 181.372949 253.444401 
L 182.78695 248.238022 
L 184.20095 250.485163 
L 185.614951 243.273764 
L 187.028952 228.322687 
L 188.442952 217.140958 
L 189.856953 209.868753 
L 191.270953 210.111557 
L 192.684954 209.11933 
L 194.098955 203.93595 
L 195.512955 195.826821 
L 196.926956 191.046582 
L 198.340957 189.318351 
L 199.754957 182.967692 
L 201.168958 166.997793 
L 202.582959 156.435609 
L 203.996959 151.844716 
L 205.41096 132.172538 
L 206.82496 114.835306 
L 208.238961 111.811937 
L 209.652962 112.269023 
L 211.066962 111.004208 
L 212.480963 106.542555 
L 213.894964 110.68042 
L 215.308964 116.523011 
L 216.722965 116.846615 
L 218.136965 110.423776 
L 219.550966 108.004007 
L 220.964967 106.861629 
L 222.378967 97.591653 
L 223.792968 95.541014 
L 225.206969 92.638752 
L 226.620969 93.122339 
L 228.03497 91.574817 
L 229.448971 93.09178 
L 230.862971 103.352367 
L 232.276972 106.499099 
L 233.690972 97.138827 
L 235.104973 90.791434 
L 236.518974 97.825381 
L 237.932974 96.384706 
L 239.346975 96.891006 
L 240.760976 99.682616 
L 242.174976 101.195319 
L 243.588977 106.875065 
L 245.002978 117.108982 
L 246.416978 125.931723 
L 247.830979 122.705016 
L 249.244979 120.445364 
L 250.65898 126.408592 
L 252.072981 133.331197 
L 253.486981 128.29721 
L 254.900982 125.229089 
L 256.314983 125.26714 
L 257.728983 128.296166 
L 259.142984 128.745776 
L 260.556984 128.215552 
L 261.970985 129.987946 
L 263.384986 131.33218 
L 264.798986 131.690669 
L 266.212987 132.452568 
L 267.626988 133.785134 
L 269.040988 121.642731 
L 270.454989 119.396313 
L 271.86899 125.102308 
L 273.28299 126.817524 
L 274.696991 114.364111 
L 276.110991 111.714772 
L 277.524992 120.474223 
L 278.938993 135.803615 
L 280.352993 137.531408 
L 281.766994 130.627643 
L 283.180995 125.332046 
L 284.594995 122.201393 
L 286.008996 120.530037 
L 287.422997 117.802642 
L 288.836997 116.64528 
L 290.250998 113.030703 
L 291.664998 114.364128 
L 293.078999 107.809457 
L 295.907 123.273999 
L 297.321001 124.593988 
L 298.735002 127.114307 
L 300.149002 133.649901 
L 301.563003 131.19831 
L 302.977003 119.736619 
L 304.391004 116.075674 
L 305.805005 119.159908 
L 307.219005 123.798802 
L 308.633006 116.575963 
L 310.047007 115.807396 
L 311.461007 119.263084 
L 312.875008 119.234916 
L 314.289009 117.015471 
L 315.703009 124.893178 
L 317.11701 130.666621 
L 318.53101 125.922883 
L 319.945011 124.501419 
L 321.359012 128.81538 
L 322.773012 130.735096 
L 324.187013 125.59763 
L 325.601014 128.93844 
L 327.015014 135.784236 
L 328.429015 134.393869 
L 329.843016 125.102358 
L 331.257016 116.815079 
L 332.671017 120.116222 
L 334.085017 120.590228 
L 335.499018 112.845701 
L 336.913019 97.447648 
L 338.327019 99.01704 
L 339.74102 101.493213 
L 341.155021 98.726757 
L 342.569021 80.585601 
L 343.983022 75.406834 
L 345.397022 88.270274 
L 348.225024 101.737582 
L 349.639024 100.842857 
L 351.053025 96.577942 
L 352.467026 91.321053 
L 353.881026 87.993123 
L 355.295027 88.002198 
L 356.709028 94.016424 
L 358.123028 96.726948 
L 359.537029 85.665384 
L 360.951029 79.068941 
L 362.36503 77.016063 
L 363.779031 80.015809 
L 365.193031 91.362674 
L 366.607032 97.283876 
L 368.021033 101.273408 
L 369.435033 94.125425 
L 370.849034 90.031236 
L 372.263035 97.784182 
L 373.677035 104.64109 
L 375.091036 98.534565 
L 376.505036 95.230139 
L 377.919037 104.586017 
L 379.333038 111.640303 
L 380.747038 109.393397 
L 382.161039 97.885085 
L 383.57504 96.617509 
L 384.98904 108.865327 
L 386.403041 113.593709 
L 387.817041 100.709998 
L 389.231042 94.685552 
L 390.645043 110.82392 
L 392.059043 119.625092 
L 393.473044 115.956032 
L 394.887045 116.445932 
L 396.301045 131.939349 
L 397.715046 141.330281 
L 399.129047 131.119144 
L 400.543047 123.346128 
L 401.957048 118.18142 
L 403.371048 126.190824 
L 404.785049 122.817907 
L 406.19905 121.3659 
L 407.61305 122.646845 
L 409.027051 122.59226 
L 410.441052 116.995637 
L 411.855052 112.428771 
L 413.269053 114.609996 
L 414.683054 120.227126 
L 416.097054 128.834018 
L 417.511055 133.533306 
L 418.925055 131.810867 
L 420.339056 131.68587 
L 421.753057 128.258115 
L 423.167057 133.017612 
L 424.581058 142.930468 
L 425.995059 140.858699 
L 427.409059 136.505963 
L 428.82306 137.201895 
L 430.237061 150.095288 
L 431.651061 152.632864 
L 433.065062 152.453215 
L 435.893063 144.14127 
L 437.307064 149.544387 
L 438.721064 159.422273 
L 440.135065 162.75485 
L 441.549066 161.782356 
L 444.377067 189.863947 
L 445.791067 187.41005 
L 447.205068 181.149485 
L 448.619069 185.372325 
L 450.033069 198.595609 
L 451.44707 204.577096 
L 452.861071 204.577214 
L 454.275071 200.177065 
L 455.689072 194.541836 
L 457.103073 190.060669 
L 458.517073 198.413611 
L 459.931074 196.98436 
L 461.345074 192.719639 
L 462.759075 183.065446 
L 464.173076 194.272363 
L 465.587076 194.260459 
L 467.001077 188.500149 
L 468.415078 198.609205 
L 469.829078 198.048093 
L 471.243079 178.691226 
L 472.65708 172.25273 
L 475.485081 188.412362 
L 476.899081 199.80312 
L 478.313082 204.700829 
L 479.727083 207.727305 
L 481.141083 218.575269 
L 482.555084 225.088437 
L 485.383085 237.370889 
L 486.797086 232.285086 
L 488.211086 231.65145 
L 489.625087 241.938546 
L 491.039088 248.596646 
L 492.453088 251.884302 
L 493.867089 247.666547 
L 495.28109 239.961813 
L 496.69509 243.302749 
L 498.109091 262.390167 
L 498.109091 262.390167 
" clip-path="url(#p50fb5a7bc0)" style="fill: none; stroke: #ff7f0e; stroke-width: 1.5; stroke-linecap: square"/>
   </g>
   <g id="line2d_18">
    <path d="M 92.290909 246.984277 
L 93.70491 255.850734 
L 96.532911 260.165503 
L 97.946912 261.894883 
L 99.360912 257.7671 
L 100.774913 260.346271 
L 102.188914 253.972453 
L 103.602914 256.420757 
L 105.016915 264.178586 
L 106.430915 268.100956 
L 107.844916 273.202097 
L 109.258917 276.007517 
L 110.672917 270.733846 
L 112.086918 278.594939 
L 113.500919 277.283764 
L 114.914919 279.69594 
L 116.32892 280.260137 
L 117.74292 281.461978 
L 119.156921 281.442035 
L 120.570922 284.120039 
L 121.984922 278.635335 
L 123.398923 279.493191 
L 124.812924 285.263448 
L 126.226924 279.10975 
L 127.640925 280.930423 
L 129.054926 283.371626 
L 130.468926 284.766084 
L 131.882927 281.695101 
L 133.296927 280.606231 
L 134.710928 282.835247 
L 136.124929 284.716176 
L 137.538929 290.907794 
L 138.95293 292.485557 
L 140.366931 292.454362 
L 141.780931 293.717864 
L 143.194932 294.290212 
L 144.608933 297.929703 
L 146.022933 297.668025 
L 147.436934 298.819133 
L 148.850934 302.425821 
L 150.264935 301.499422 
L 151.678936 302.946192 
L 153.092936 300.486313 
L 154.506937 298.756037 
L 155.920938 299.01356 
L 157.334938 298.02039 
L 158.748939 298.227681 
L 160.162939 298.827913 
L 161.57694 297.790315 
L 162.990941 299.410265 
L 164.404941 297.119086 
L 165.818942 297.409189 
L 167.232943 294.019308 
L 168.646943 291.265492 
L 170.060944 285.467518 
L 171.474945 282.708963 
L 172.888945 275.816306 
L 174.302946 272.278093 
L 175.716946 264.038979 
L 177.130947 265.839613 
L 178.544948 266.549928 
L 179.958948 260.040229 
L 181.372949 251.626968 
L 182.78695 252.929489 
L 184.20095 255.146711 
L 185.614951 242.84728 
L 187.028952 226.845072 
L 188.442952 212.178948 
L 189.856953 201.893342 
L 191.270953 201.473348 
L 192.684954 197.115308 
L 194.098955 195.289828 
L 195.512955 188.159136 
L 196.926956 186.091307 
L 198.340957 183.119021 
L 199.754957 176.246337 
L 201.168958 160.428694 
L 202.582959 152.946652 
L 203.996959 144.374914 
L 205.41096 122.575827 
L 206.82496 113.181831 
L 208.238961 106.567322 
L 209.652962 102.137844 
L 211.066962 103.458203 
L 212.480963 99.845024 
L 213.894964 107.495417 
L 215.308964 111.131141 
L 216.722965 112.379978 
L 218.136965 110.329507 
L 219.550966 110.247932 
L 220.964967 106.466015 
L 222.378967 98.275514 
L 223.792968 98.850457 
L 225.206969 91.034053 
L 226.620969 93.261714 
L 228.03497 89.79946 
L 229.448971 91.929097 
L 230.862971 100.740776 
L 232.276972 100.096667 
L 233.690972 97.125543 
L 235.104973 96.695396 
L 236.518974 98.696552 
L 237.932974 92.76986 
L 239.346975 98.057578 
L 240.760976 96.77234 
L 242.174976 98.995102 
L 243.588977 106.316504 
L 245.002978 112.93502 
L 246.416978 122.049054 
L 247.830979 121.09641 
L 249.244979 123.92853 
L 250.65898 128.589396 
L 252.072981 131.882827 
L 253.486981 127.172444 
L 254.900982 129.194747 
L 256.314983 126.091353 
L 257.728983 128.959957 
L 259.142984 128.01223 
L 260.556984 128.097846 
L 261.970985 130.671571 
L 263.384986 130.962208 
L 264.798986 131.907578 
L 266.212987 133.350997 
L 267.626988 133.909171 
L 269.040988 121.671909 
L 270.454989 125.576365 
L 271.86899 123.488668 
L 273.28299 127.765571 
L 274.696991 113.352893 
L 276.110991 118.301062 
L 277.524992 120.052528 
L 278.938993 131.812753 
L 280.352993 131.004737 
L 281.766994 131.561076 
L 283.180995 129.264687 
L 284.594995 124.574912 
L 286.008996 121.792242 
L 287.422997 117.247179 
L 288.836997 115.644517 
L 290.250998 111.873998 
L 291.664998 114.3498 
L 293.078999 105.718831 
L 294.493 118.215127 
L 295.907 117.063742 
L 297.321001 121.722049 
L 298.735002 128.008796 
L 300.149002 132.405004 
L 301.563003 130.220395 
L 302.977003 123.678082 
L 304.391004 120.899049 
L 305.805005 119.46787 
L 307.219005 121.60569 
L 308.633006 113.552409 
L 310.047007 118.702435 
L 311.461007 117.71201 
L 312.875008 117.374752 
L 314.289009 117.686182 
L 315.703009 124.853393 
L 317.11701 126.537242 
L 318.53101 125.346846 
L 319.945011 127.628149 
L 321.359012 129.136273 
L 322.773012 129.818298 
L 324.187013 125.920796 
L 325.601014 131.377454 
L 327.015014 133.983236 
L 328.429015 132.683754 
L 329.843016 127.286311 
L 331.257016 121.006586 
L 332.671017 122.738673 
L 334.085017 117.593731 
L 335.499018 111.939106 
L 336.913019 100.553955 
L 338.327019 103.881548 
L 339.74102 97.324638 
L 341.155021 96.770707 
L 342.569021 82.495636 
L 343.983022 83.823386 
L 345.397022 86.555916 
L 346.811023 86.12678 
L 348.225024 97.879242 
L 349.639024 95.613193 
L 351.053025 97.714747 
L 352.467026 95.422668 
L 353.881026 90.644617 
L 355.295027 89.513083 
L 356.709028 92.464121 
L 358.123028 91.382777 
L 359.537029 85.588675 
L 360.951029 85.446522 
L 362.36503 79.525117 
L 363.779031 102.338724 
L 365.193031 92.911222 
L 366.607032 94.221985 
L 368.021033 102.502647 
L 369.435033 94.716482 
L 370.849034 95.949458 
L 372.263035 99.919005 
L 373.677035 99.524148 
L 375.091036 96.356218 
L 376.505036 98.567817 
L 377.919037 103.301469 
L 379.333038 106.807331 
L 380.747038 107.290429 
L 382.161039 99.83536 
L 383.57504 102.364147 
L 384.98904 107.454049 
L 386.403041 106.719173 
L 387.817041 100.105035 
L 389.231042 101.035757 
L 390.645043 110.373013 
L 392.059043 111.303499 
L 393.473044 113.922027 
L 394.887045 118.23028 
L 396.301045 131.327785 
L 397.715046 137.124278 
L 399.129047 130.816906 
L 400.543047 130.62234 
L 401.957048 121.60271 
L 403.371048 128.882946 
L 404.785049 118.365884 
L 406.19905 122.733032 
L 409.027051 121.135556 
L 410.441052 117.708289 
L 411.855052 114.933448 
L 413.269053 114.906526 
L 414.683054 118.392924 
L 416.097054 125.501323 
L 417.511055 129.986834 
L 418.925055 131.490496 
L 420.339056 134.548178 
L 421.753057 129.466156 
L 423.167057 136.318198 
L 424.581058 141.550338 
L 425.995059 137.692789 
L 427.409059 140.416278 
L 428.82306 139.615536 
L 430.237061 151.569333 
L 431.651061 150.226463 
L 433.065062 155.205478 
L 434.479062 150.766857 
L 435.893063 148.174477 
L 438.721064 158.996588 
L 441.549066 165.171875 
L 442.963066 181.862843 
L 444.377067 190.952481 
L 445.791067 192.396473 
L 447.205068 190.388566 
L 448.619069 194.127398 
L 450.033069 204.326867 
L 452.861071 211.778923 
L 454.275071 200.611581 
L 455.689072 197.045528 
L 457.103073 193.795224 
L 458.517073 200.071465 
L 459.931074 189.815112 
L 461.345074 193.080148 
L 462.759075 179.318633 
L 464.173076 196.86657 
L 465.587076 184.905221 
L 467.001077 190.000629 
L 468.415078 199.222671 
L 469.829078 192.494901 
L 471.243079 180.21058 
L 472.65708 178.005968 
L 474.07108 178.023277 
L 475.485081 186.379991 
L 476.899081 199.474684 
L 478.313082 202.330341 
L 479.727083 213.765632 
L 481.141083 222.081551 
L 482.555084 228.00336 
L 483.969085 237.437133 
L 485.383085 241.285497 
L 486.797086 237.201073 
L 488.211086 240.53679 
L 489.625087 245.79133 
L 491.039088 252.105121 
L 492.453088 257.634249 
L 493.867089 252.463989 
L 495.28109 247.89711 
L 496.69509 249.984815 
L 498.109091 265.389893 
L 498.109091 265.389893 
" clip-path="url(#p50fb5a7bc0)" style="fill: none; stroke: #2ca02c; stroke-width: 1.5; stroke-linecap: square"/>
   </g>
   <g id="line2d_19">
    <path d="M 92.290909 250.138788 
L 95.11891 258.419728 
L 96.532911 261.802066 
L 97.946912 264.521859 
L 99.360912 264.617947 
L 100.774913 266.058134 
L 102.188914 263.149398 
L 103.602914 265.878998 
L 105.016915 269.914866 
L 106.430915 272.196228 
L 107.844916 275.955441 
L 109.258917 277.448268 
L 110.672917 276.770865 
L 112.086918 281.559118 
L 113.500919 282.410825 
L 114.914919 282.76348 
L 116.32892 282.405597 
L 117.74292 283.407101 
L 119.156921 283.66723 
L 120.570922 282.759675 
L 121.984922 281.397998 
L 123.398923 280.52703 
L 124.812924 285.451746 
L 126.226924 281.781827 
L 129.054926 281.741646 
L 130.468926 285.704568 
L 131.882927 282.374895 
L 133.296927 280.139396 
L 134.710928 283.444016 
L 136.124929 287.19247 
L 137.538929 287.669221 
L 138.95293 289.583684 
L 140.366931 292.743078 
L 141.780931 292.567823 
L 143.194932 294.154718 
L 144.608933 299.233491 
L 146.022933 298.996572 
L 147.436934 298.942736 
L 148.850934 302.109066 
L 150.264935 301.595021 
L 153.092936 297.797488 
L 154.506937 296.471656 
L 155.920938 294.895142 
L 157.334938 294.06997 
L 158.748939 296.258334 
L 160.162939 295.452491 
L 161.57694 295.401265 
L 162.990941 297.36112 
L 164.404941 292.306853 
L 165.818942 291.790973 
L 167.232943 288.438588 
L 168.646943 283.031379 
L 170.060944 276.359903 
L 171.474945 274.822029 
L 172.888945 267.174768 
L 174.302946 260.987181 
L 175.716946 258.113593 
L 177.130947 257.59028 
L 178.544948 258.178052 
L 179.958948 253.15554 
L 181.372949 244.961343 
L 182.78695 237.562323 
L 184.20095 240.224383 
L 185.614951 230.579021 
L 187.028952 222.113423 
L 188.442952 210.169273 
L 189.856953 200.178825 
L 191.270953 199.267036 
L 192.684954 198.729832 
L 194.098955 196.377477 
L 195.512955 191.814652 
L 196.926956 186.744398 
L 198.340957 184.068086 
L 199.754957 178.184927 
L 201.168958 161.43476 
L 202.582959 147.725911 
L 203.996959 145.044245 
L 205.41096 116.370133 
L 206.82496 105.159916 
L 208.238961 102.490339 
L 209.652962 99.583111 
L 211.066962 97.925443 
L 212.480963 95.932621 
L 213.894964 103.489772 
L 215.308964 105.6894 
L 216.722965 104.249281 
L 218.136965 103.395789 
L 219.550966 105.39873 
L 220.964967 101.456862 
L 222.378967 91.912176 
L 223.792968 90.690514 
L 225.206969 84.964484 
L 226.620969 85.88667 
L 228.03497 91.047371 
L 229.448971 91.601504 
L 230.862971 99.68334 
L 232.276972 102.670527 
L 233.690972 95.403087 
L 235.104973 88.935058 
L 236.518974 93.87092 
L 237.932974 87.916835 
L 239.346975 92.771578 
L 240.760976 95.922351 
L 242.174976 95.346397 
L 243.588977 99.154126 
L 246.416978 121.735889 
L 247.830979 121.428483 
L 249.244979 125.036409 
L 250.65898 127.415803 
L 252.072981 126.07226 
L 253.486981 122.005581 
L 254.900982 122.461555 
L 256.314983 119.916621 
L 257.728983 124.496284 
L 259.142984 123.362746 
L 260.556984 124.962697 
L 261.970985 128.824017 
L 263.384986 130.649329 
L 264.798986 129.121237 
L 266.212987 128.812787 
L 267.626988 130.954227 
L 269.040988 117.073844 
L 270.454989 119.323612 
L 271.86899 120.500825 
L 273.28299 118.460187 
L 274.696991 111.835475 
L 276.110991 112.587306 
L 277.524992 118.545129 
L 278.938993 129.677256 
L 280.352993 131.026036 
L 281.766994 130.095836 
L 283.180995 127.493 
L 284.594995 120.038065 
L 286.008996 115.810881 
L 287.422997 115.807682 
L 288.836997 110.202338 
L 290.250998 105.39282 
L 291.664998 110.414954 
L 293.078999 102.443381 
L 294.493 111.420246 
L 295.907 119.493664 
L 297.321001 120.816734 
L 298.735002 131.955562 
L 300.149002 135.357423 
L 301.563003 128.06956 
L 302.977003 117.829059 
L 304.391004 112.287543 
L 305.805005 110.117717 
L 307.219005 116.327654 
L 308.633006 112.852924 
L 310.047007 111.082095 
L 311.461007 113.855387 
L 312.875008 117.79126 
L 314.289009 117.937067 
L 315.703009 128.950024 
L 317.11701 130.644851 
L 318.53101 115.850364 
L 319.945011 118.53341 
L 321.359012 121.998409 
L 322.773012 120.519968 
L 324.187013 125.765072 
L 325.601014 125.94462 
L 327.015014 127.978809 
L 328.429015 133.034448 
L 329.843016 121.162663 
L 331.257016 118.21181 
L 332.671017 120.201079 
L 334.085017 118.844639 
L 335.499018 119.665837 
L 336.913019 93.490425 
L 338.327019 88.73236 
L 339.74102 90.985243 
L 341.155021 85.099094 
L 342.569021 74.753414 
L 343.983022 77.020356 
L 345.397022 85.63991 
L 346.811023 87.051659 
L 348.225024 94.601234 
L 349.639024 104.743256 
L 351.053025 94.343412 
L 352.467026 90.306181 
L 353.881026 88.211143 
L 355.295027 86.351568 
L 356.709028 89.463532 
L 358.123028 89.833672 
L 359.537029 79.793042 
L 360.951029 78.392758 
L 362.36503 78.081041 
L 363.779031 76.068117 
L 365.193031 89.639258 
L 366.607032 92.834766 
L 368.021033 94.255961 
L 369.435033 96.119931 
L 370.849034 88.536952 
L 372.263035 95.808046 
L 373.677035 100.522588 
L 375.091036 90.720299 
L 376.505036 92.027323 
L 377.919037 100.237204 
L 380.747038 109.41808 
L 382.161039 99.022394 
L 383.57504 97.203868 
L 384.98904 104.051179 
L 386.403041 103.400975 
L 387.817041 93.786012 
L 389.231042 96.978221 
L 390.645043 108.80916 
L 392.059043 112.445271 
L 393.473044 109.896784 
L 396.301045 129.580293 
L 397.715046 133.698088 
L 400.543047 125.038362 
L 401.957048 117.055391 
L 403.371048 120.763496 
L 404.785049 116.83993 
L 406.19905 118.435723 
L 407.61305 119.387727 
L 409.027051 120.054313 
L 410.441052 115.144952 
L 411.855052 111.508117 
L 413.269053 114.765046 
L 414.683054 119.056277 
L 416.097054 126.92794 
L 417.511055 133.467811 
L 418.925055 133.704015 
L 420.339056 134.861596 
L 421.753057 127.833306 
L 423.167057 136.848238 
L 424.581058 141.765984 
L 425.995059 138.913087 
L 427.409059 142.570463 
L 428.82306 141.324876 
L 430.237061 149.776584 
L 431.651061 151.32823 
L 433.065062 154.174627 
L 434.479062 151.141055 
L 435.893063 146.406898 
L 437.307064 153.977738 
L 438.721064 160.730258 
L 440.135065 159.532016 
L 441.549066 168.230635 
L 442.963066 186.103185 
L 444.377067 194.077376 
L 445.791067 194.690033 
L 447.205068 189.106788 
L 448.619069 189.653319 
L 450.033069 200.071473 
L 452.861071 209.551691 
L 455.689072 198.461832 
L 457.103073 195.907772 
L 458.517073 198.662401 
L 459.931074 200.202792 
L 461.345074 197.894196 
L 462.759075 187.498207 
L 464.173076 205.931634 
L 465.587076 191.420788 
L 467.001077 191.079077 
L 468.415078 209.01548 
L 469.829078 195.81283 
L 471.243079 173.964562 
L 472.65708 177.597659 
L 474.07108 180.146886 
L 475.485081 189.846319 
L 476.899081 209.84439 
L 478.313082 213.642471 
L 479.727083 218.320806 
L 481.141083 225.376262 
L 482.555084 233.076231 
L 483.969085 242.926059 
L 485.383085 246.731346 
L 486.797086 241.12846 
L 488.211086 237.135249 
L 489.625087 245.859056 
L 491.039088 249.199706 
L 492.453088 255.132257 
L 493.867089 254.651701 
L 495.28109 245.738 
L 496.69509 246.708852 
L 498.109091 263.286517 
L 498.109091 263.286517 
" clip-path="url(#p50fb5a7bc0)" style="fill: none; stroke: #d62728; stroke-width: 1.5; stroke-linecap: square"/>
   </g>
   <g id="line2d_20">
    <path d="M 92.290909 250.138788 
L 95.11891 258.419728 
L 96.532911 261.802066 
L 97.946912 264.521859 
L 99.360912 264.617947 
L 100.774913 266.058134 
L 102.188914 263.149398 
L 103.602914 265.878998 
L 105.016915 269.914866 
L 106.430915 272.196228 
L 107.844916 275.955441 
L 109.258917 277.448268 
L 110.672917 276.770865 
L 112.086918 281.559118 
L 113.500919 282.410825 
L 114.914919 282.76348 
L 116.32892 282.405597 
L 117.74292 283.407101 
L 119.156921 283.66723 
L 120.570922 282.759675 
L 121.984922 281.397998 
L 123.398923 280.52703 
L 124.812924 285.451746 
L 126.226924 281.781827 
L 129.054926 281.741646 
L 130.468926 285.704568 
L 131.882927 282.374895 
L 133.296927 280.139396 
L 134.710928 283.444016 
L 136.124929 287.19247 
L 137.538929 287.669221 
L 138.95293 289.583684 
L 140.366931 292.743078 
L 141.780931 292.567823 
L 143.194932 294.154718 
L 144.608933 299.233491 
L 146.022933 298.996572 
L 147.436934 298.942736 
L 148.850934 302.109066 
L 150.264935 301.595021 
L 153.092936 297.797488 
L 154.506937 296.471656 
L 155.920938 294.895142 
L 157.334938 294.06997 
L 158.748939 296.258334 
L 160.162939 295.452491 
L 161.57694 295.401265 
L 162.990941 297.36112 
L 164.404941 292.306853 
L 165.818942 291.790973 
L 167.232943 288.438588 
L 168.646943 283.031379 
L 170.060944 276.359903 
L 171.474945 274.822029 
L 172.888945 267.174768 
L 174.302946 260.987181 
L 175.716946 258.113593 
L 177.130947 257.59028 
L 178.544948 258.178052 
L 179.958948 253.15554 
L 181.372949 244.961343 
L 182.78695 237.562323 
L 184.20095 240.224383 
L 185.614951 230.579021 
L 187.028952 222.113423 
L 188.442952 210.169273 
L 189.856953 200.178825 
L 191.270953 199.267036 
L 192.684954 198.729832 
L 194.098955 196.377477 
L 195.512955 191.814652 
L 196.926956 186.744398 
L 198.340957 184.068086 
L 199.754957 178.184927 
L 201.168958 161.43476 
L 202.582959 147.725911 
L 203.996959 145.044245 
L 205.41096 116.370133 
L 206.82496 105.159916 
L 208.238961 102.490339 
L 209.652962 99.583111 
L 211.066962 97.925443 
L 212.480963 95.932621 
L 213.894964 103.489772 
L 215.308964 105.6894 
L 216.722965 104.249281 
L 218.136965 103.395789 
L 219.550966 105.39873 
L 220.964967 101.456862 
L 222.378967 91.912176 
L 223.792968 90.690514 
L 225.206969 84.964484 
L 226.620969 85.88667 
L 228.03497 91.047371 
L 229.448971 91.601504 
L 230.862971 99.68334 
L 232.276972 102.670527 
L 233.690972 95.403087 
L 235.104973 88.935058 
L 236.518974 93.87092 
L 237.932974 87.916835 
L 239.346975 92.771578 
L 240.760976 95.922351 
L 242.174976 95.346397 
L 243.588977 99.154126 
L 246.416978 121.735889 
L 247.830979 121.428483 
L 249.244979 125.036409 
L 250.65898 127.415803 
L 252.072981 126.07226 
L 253.486981 122.005581 
L 254.900982 122.461555 
L 256.314983 119.916621 
L 257.728983 124.496284 
L 259.142984 123.362746 
L 260.556984 124.962697 
L 261.970985 128.824017 
L 263.384986 130.649329 
L 264.798986 129.121237 
L 266.212987 128.812787 
L 267.626988 130.954227 
L 269.040988 117.073844 
L 270.454989 119.323612 
L 271.86899 120.500825 
L 273.28299 118.460187 
L 274.696991 111.835475 
L 276.110991 112.587306 
L 277.524992 118.545129 
L 278.938993 129.677256 
L 280.352993 131.026036 
L 281.766994 130.095836 
L 283.180995 127.493 
L 284.594995 120.038065 
L 286.008996 115.810881 
L 287.422997 115.807682 
L 288.836997 110.202338 
L 290.250998 105.39282 
L 291.664998 110.414954 
L 293.078999 102.443381 
L 294.493 111.420246 
L 295.907 119.493664 
L 297.321001 120.816734 
L 298.735002 131.955562 
L 300.149002 135.357423 
L 301.563003 128.06956 
L 302.977003 117.829059 
L 304.391004 112.287543 
L 305.805005 110.117717 
L 307.219005 116.327654 
L 308.633006 112.852924 
L 310.047007 111.082095 
L 311.461007 113.855387 
L 312.875008 117.79126 
L 314.289009 117.937067 
L 315.703009 128.950024 
L 317.11701 130.644851 
L 318.53101 115.850364 
L 319.945011 118.53341 
L 321.359012 121.998409 
L 322.773012 120.519968 
L 324.187013 125.765072 
L 325.601014 125.94462 
L 327.015014 127.978809 
L 328.429015 133.034448 
L 329.843016 121.162663 
L 331.257016 118.21181 
L 332.671017 120.201079 
L 334.085017 118.844639 
L 335.499018 119.665837 
L 336.913019 93.490425 
L 338.327019 88.73236 
L 339.74102 90.985243 
L 341.155021 85.099094 
L 342.569021 74.753414 
L 343.983022 77.020356 
L 345.397022 85.63991 
L 346.811023 87.051659 
L 348.225024 94.601234 
L 349.639024 104.743256 
L 351.053025 94.343412 
L 352.467026 90.306181 
L 353.881026 88.211143 
L 355.295027 86.351568 
L 356.709028 89.463532 
L 358.123028 89.833672 
L 359.537029 79.793042 
L 360.951029 78.392758 
L 362.36503 78.081041 
L 363.779031 76.068117 
L 365.193031 89.639258 
L 366.607032 92.834766 
L 368.021033 94.255961 
L 369.435033 96.119931 
L 370.849034 88.536952 
L 372.263035 95.808046 
L 373.677035 100.522588 
L 375.091036 90.720299 
L 376.505036 92.027323 
L 377.919037 100.237204 
L 380.747038 109.41808 
L 382.161039 99.022394 
L 383.57504 97.203868 
L 384.98904 104.051179 
L 386.403041 103.400975 
L 387.817041 93.786012 
L 389.231042 96.978221 
L 390.645043 108.80916 
L 392.059043 112.445271 
L 393.473044 109.896784 
L 396.301045 129.580293 
L 397.715046 133.698088 
L 400.543047 125.038362 
L 401.957048 117.055391 
L 403.371048 120.763496 
L 404.785049 116.83993 
L 406.19905 118.435723 
L 407.61305 119.387727 
L 409.027051 120.054313 
L 410.441052 115.144952 
L 411.855052 111.508117 
L 413.269053 114.765046 
L 414.683054 119.056277 
L 416.097054 126.92794 
L 417.511055 133.467811 
L 418.925055 133.704015 
L 420.339056 134.861596 
L 421.753057 127.833306 
L 423.167057 136.848238 
L 424.581058 141.765984 
L 425.995059 138.913087 
L 427.409059 142.570463 
L 428.82306 141.324876 
L 430.237061 149.776584 
L 431.651061 151.32823 
L 433.065062 154.174627 
L 434.479062 151.141055 
L 435.893063 146.406898 
L 437.307064 153.977738 
L 438.721064 160.730258 
L 440.135065 159.532016 
L 441.549066 168.230635 
L 442.963066 186.103185 
L 444.377067 194.077376 
L 445.791067 194.690033 
L 447.205068 189.106788 
L 448.619069 189.653319 
L 450.033069 200.071473 
L 452.861071 209.551691 
L 455.689072 198.461832 
L 457.103073 195.907772 
L 458.517073 198.662401 
L 459.931074 200.202792 
L 461.345074 197.894196 
L 462.759075 187.498207 
L 464.173076 205.931634 
L 465.587076 191.420788 
L 467.001077 191.079077 
L 468.415078 209.01548 
L 469.829078 195.81283 
L 471.243079 173.964562 
L 472.65708 177.597659 
L 474.07108 180.146886 
L 475.485081 189.846319 
L 476.899081 209.84439 
L 478.313082 213.642471 
L 479.727083 218.320806 
L 481.141083 225.376262 
L 482.555084 233.076231 
L 483.969085 242.926059 
L 485.383085 246.731346 
L 486.797086 241.12846 
L 488.211086 237.135249 
L 489.625087 245.859056 
L 491.039088 249.199706 
L 492.453088 255.132257 
L 493.867089 254.651701 
L 495.28109 245.738 
L 496.69509 246.708852 
L 498.109091 263.286517 
L 498.109091 263.286517 
" clip-path="url(#p50fb5a7bc0)" style="fill: none; stroke: #9467bd; stroke-width: 1.5; stroke-linecap: square"/>
   </g>
   <g id="patch_3">
    <path d="M 72 320.4 
L 72 43.2 
" style="fill: none; stroke: #000000; stroke-width: 0.8; stroke-linejoin: miter; stroke-linecap: square"/>
   </g>
   <g id="patch_4">
    <path d="M 518.4 320.4 
L 518.4 43.2 
" style="fill: none; stroke: #000000; stroke-width: 0.8; stroke-linejoin: miter; stroke-linecap: square"/>
   </g>
   <g id="patch_5">
    <path d="M 72 320.4 
L 518.4 320.4 
" style="fill: none; stroke: #000000; stroke-width: 0.8; stroke-linejoin: miter; stroke-linecap: square"/>
   </g>
   <g id="patch_6">
    <path d="M 72 43.2 
L 518.4 43.2 
" style="fill: none; stroke: #000000; stroke-width: 0.8; stroke-linejoin: miter; stroke-linecap: square"/>
   </g>
   <g id="text_15">
    <!--    -->
    <g transform="translate(265.2 37.2) scale(0.12 -0.12)">
     <defs>
      <path id="SimHei-20" transform="scale(0.015625)"/>
      <path id="SimHei-9884" d="M 5200 4800 
Q 5575 4800 5950 4825 
L 5950 4400 
Q 5575 4425 5200 4425 
L 4500 4425 
Q 4425 4050 4350 3600 
L 5725 3600 
Q 5700 3225 5700 2800 
L 5700 1725 
Q 5700 1300 5725 850 
L 5250 850 
L 5250 3225 
L 3550 3225 
L 3550 800 
L 3075 800 
Q 3100 1375 3100 1725 
L 3100 2775 
Q 3100 3175 3075 3600 
L 3900 3600 
Q 4000 4150 4000 4425 
L 3725 4425 
Q 3300 4425 2850 4400 
L 2850 4825 
Q 3325 4800 3725 4800 
L 5200 4800 
z
M 2600 1775 
Q 2350 1825 2150 1825 
Q 2250 2250 2300 2450 
L 1750 2450 
L 1750 125 
Q 1725 -300 1425 -400 
Q 1125 -500 750 -500 
Q 700 -225 575 25 
Q 1125 -25 1212 37 
Q 1300 100 1300 350 
L 1300 2450 
L 1025 2450 
Q 700 2450 350 2425 
L 350 2850 
Q 700 2825 1000 2825 
L 2850 2825 
Q 2725 2325 2600 1775 
z
M 4725 2875 
Q 4625 2575 4600 2100 
Q 4575 1625 4462 1037 
Q 4350 450 3962 62 
Q 3575 -325 2925 -675 
Q 2700 -500 2475 -350 
Q 3075 -125 3437 200 
Q 3800 525 3950 937 
Q 4100 1350 4137 1850 
Q 4175 2350 4175 2925 
L 4725 2875 
z
M 1625 2900 
Q 1275 3275 800 3650 
Q 925 3775 1075 3950 
Q 1250 3825 1425 3675 
Q 1750 4150 1950 4375 
L 1400 4375 
Q 900 4375 450 4350 
L 450 4775 
Q 900 4750 1375 4750 
L 2575 4750 
L 2575 4375 
Q 2200 4100 1725 3400 
L 1950 3200 
Q 1750 3025 1625 2900 
z
M 4775 725 
Q 5725 0 6075 -325 
Q 5850 -500 5725 -650 
Q 5400 -325 5137 -87 
Q 4875 150 4525 350 
Q 4650 525 4775 725 
z
" transform="scale(0.015625)"/>
      <path id="SimHei-6d4b" d="M 4025 4725 
Q 4000 4475 4000 4000 
L 4000 2225 
Q 4000 1775 4025 1350 
L 3550 1350 
L 3550 4325 
L 2350 4325 
L 2350 1325 
L 1900 1325 
Q 1925 1775 1925 2225 
L 1925 4000 
Q 1925 4200 1900 4725 
L 4025 4725 
z
M 5900 5075 
Q 5875 4800 5875 4375 
L 5875 0 
Q 5875 -325 5650 -425 
Q 5425 -525 4975 -600 
Q 4925 -325 4775 -50 
Q 5125 -50 5262 -25 
Q 5400 0 5400 250 
L 5400 4375 
Q 5400 4775 5375 5075 
L 5900 5075 
z
M 3275 3725 
Q 3225 3400 3200 2325 
Q 3175 1250 2837 550 
Q 2500 -150 2075 -600 
Q 1850 -400 1600 -325 
Q 2200 250 2475 962 
Q 2750 1675 2762 2475 
Q 2775 3275 2725 3800 
Q 3000 3750 3275 3725 
z
M 4950 4275 
Q 4925 4000 4925 3575 
L 4925 1825 
Q 4925 1300 4950 850 
L 4450 850 
Q 4475 1150 4475 1825 
L 4475 3575 
Q 4475 4000 4450 4275 
L 4950 4275 
z
M 1700 1675 
Q 1375 1075 1112 487 
Q 850 -100 725 -400 
Q 500 -200 200 -25 
Q 475 300 762 850 
Q 1050 1400 1250 2000 
Q 1475 1825 1700 1675 
z
M 3400 1050 
Q 3800 650 4300 -125 
Q 4100 -225 3875 -450 
Q 3475 275 3025 750 
Q 3225 875 3400 1050 
z
M 600 3525 
Q 1125 3125 1500 2775 
Q 1300 2575 1150 2375 
Q 825 2775 300 3150 
Q 450 3300 600 3525 
z
M 1350 4000 
Q 950 4375 475 4675 
Q 625 4850 775 5050 
Q 1300 4700 1675 4375 
Q 1500 4250 1350 4000 
z
" transform="scale(0.015625)"/>
      <path id="SimHei-7ed3" d="M 5725 1925 
Q 5700 1600 5700 1200 
L 5700 350 
Q 5700 -125 5725 -475 
L 5225 -475 
L 5225 0 
L 3525 0 
L 3525 -525 
L 3025 -525 
Q 3050 125 3050 325 
L 3050 1250 
Q 3050 1550 3025 1925 
L 5725 1925 
z
M 1900 4850 
Q 1700 4600 1475 4200 
Q 1250 3800 925 3200 
Q 1475 3225 1725 3225 
Q 1950 3625 2100 4000 
Q 2350 3825 2650 3675 
Q 2525 3575 2212 3125 
Q 1900 2675 1225 1650 
Q 2050 1775 2525 1850 
Q 2450 1575 2450 1375 
Q 2225 1350 1650 1275 
Q 1075 1200 525 1050 
Q 425 1300 350 1550 
Q 650 1625 950 2012 
Q 1250 2400 1475 2825 
Q 1300 2825 962 2787 
Q 625 2750 375 2675 
Q 300 2925 225 3150 
Q 500 3375 812 3925 
Q 1125 4475 1300 5125 
Q 1600 4975 1900 4850 
z
M 4075 4175 
Q 4075 4600 4050 5175 
L 4575 5175 
Q 4550 4725 4550 4175 
L 5275 4175 
Q 5750 4175 6150 4200 
L 6150 3750 
Q 5750 3775 5300 3775 
L 4550 3775 
L 4550 2950 
L 5125 2950 
Q 5475 2950 5825 2975 
L 5825 2525 
Q 5525 2550 5100 2550 
L 3650 2550 
Q 3225 2550 2900 2525 
L 2900 2975 
Q 3225 2950 3600 2950 
L 4075 2950 
L 4075 3775 
L 3525 3775 
Q 3075 3775 2675 3750 
L 2675 4200 
Q 3000 4175 3475 4175 
L 4075 4175 
z
M 5225 400 
L 5225 1525 
L 3525 1525 
L 3525 400 
L 5225 400 
z
M 2575 650 
Q 2500 425 2525 175 
Q 2050 100 1450 0 
Q 850 -100 425 -225 
Q 325 100 225 350 
Q 750 375 1175 437 
Q 1600 500 2575 650 
z
" transform="scale(0.015625)"/>
      <path id="SimHei-679c" d="M 2975 -525 
Q 3000 -75 3000 575 
L 3000 1600 
L 2900 1600 
Q 2725 1275 2500 1000 
Q 2275 725 1987 512 
Q 1700 300 1362 100 
Q 1025 -100 675 -250 
Q 575 25 400 275 
Q 700 350 975 487 
Q 1250 625 1525 787 
Q 1800 950 2000 1150 
Q 2200 1350 2375 1600 
L 1375 1600 
Q 1000 1600 450 1550 
L 450 2050 
Q 950 2000 1375 2000 
L 3000 2000 
L 3000 2450 
L 1150 2450 
Q 1175 3050 1175 3775 
Q 1175 4500 1150 5000 
L 5325 5000 
Q 5300 4500 5300 3775 
Q 5300 3050 5325 2450 
L 3475 2450 
L 3475 2000 
L 5050 2000 
Q 5550 2000 5925 2025 
L 5925 1550 
Q 5500 1600 5100 1600 
L 4125 1600 
Q 4450 1075 4925 800 
Q 5400 525 6050 375 
Q 5875 150 5775 -175 
Q 4925 150 4425 550 
Q 3925 950 3675 1600 
L 3475 1600 
L 3475 550 
Q 3475 0 3500 -525 
L 2975 -525 
z
M 4825 3875 
L 4825 4625 
L 3475 4625 
L 3475 3875 
L 4825 3875 
z
M 3000 3875 
L 3000 4625 
L 1675 4625 
L 1675 3875 
L 3000 3875 
z
M 4825 2825 
L 4825 3500 
L 3475 3500 
L 3475 2825 
L 4825 2825 
z
M 3000 2825 
L 3000 3500 
L 1675 3500 
L 1675 2825 
L 3000 2825 
z
" transform="scale(0.015625)"/>
     </defs>
     <use xlink:href="#SimHei-20"/>
     <use xlink:href="#SimHei-9884" x="50"/>
     <use xlink:href="#SimHei-6d4b" x="150"/>
     <use xlink:href="#SimHei-7ed3" x="250"/>
     <use xlink:href="#SimHei-679c" x="350"/>
     <use xlink:href="#SimHei-20" x="450"/>
    </g>
   </g>
   <g id="legend_1">
    <g id="patch_7">
     <path d="M 449.4 130.7 
L 511.4 130.7 
Q 513.4 130.7 513.4 128.7 
L 513.4 50.2 
Q 513.4 48.2 511.4 48.2 
L 449.4 48.2 
Q 447.4 48.2 447.4 50.2 
L 447.4 128.7 
Q 447.4 130.7 449.4 130.7 
z
" style="fill: #ffffff; opacity: 0.8; stroke: #cccccc; stroke-linejoin: miter"/>
    </g>
    <g id="line2d_21">
     <path d="M 451.4 55.7 
L 461.4 55.7 
L 471.4 55.7 
" style="fill: none; stroke: #000000; stroke-width: 1.5; stroke-linecap: square"/>
    </g>
    <g id="text_16">
     <!-- real -->
     <g transform="translate(479.4 59.2) scale(0.1 -0.1)">
      <defs>
       <path id="SimHei-72" d="M 2500 2425 
Q 2025 2500 1700 2287 
Q 1375 2075 1150 1550 
L 1150 125 
L 650 125 
L 650 2925 
L 1150 2925 
L 1150 2200 
Q 1375 2600 1712 2787 
Q 2050 2975 2500 2975 
L 2500 2425 
z
" transform="scale(0.015625)"/>
       <path id="SimHei-65" d="M 2850 1075 
Q 2800 625 2450 350 
Q 2100 75 1625 75 
Q 1025 75 637 462 
Q 250 850 250 1525 
Q 250 2200 637 2587 
Q 1025 2975 1625 2975 
Q 2150 2975 2487 2637 
Q 2825 2300 2825 1525 
L 800 1525 
Q 800 975 1037 750 
Q 1275 525 1625 525 
Q 1900 525 2075 662 
Q 2250 800 2300 1075 
L 2850 1075 
z
M 2250 1925 
Q 2200 2275 2025 2412 
Q 1850 2550 1575 2550 
Q 1325 2550 1125 2412 
Q 925 2275 825 1925 
L 2250 1925 
z
" transform="scale(0.015625)"/>
       <path id="SimHei-61" d="M 2875 125 
L 2275 125 
Q 2225 175 2200 262 
Q 2175 350 2175 475 
Q 2000 275 1750 175 
Q 1500 75 1225 75 
Q 825 75 550 275 
Q 275 475 275 850 
Q 275 1225 525 1450 
Q 775 1675 1300 1750 
Q 1650 1800 1912 1875 
Q 2175 1950 2175 2075 
Q 2175 2225 2062 2375 
Q 1950 2525 1575 2525 
Q 1275 2525 1137 2412 
Q 1000 2300 950 2100 
L 400 2100 
Q 450 2500 762 2737 
Q 1075 2975 1575 2975 
Q 2125 2975 2400 2725 
Q 2675 2475 2675 2025 
L 2675 650 
Q 2675 500 2725 375 
Q 2775 250 2875 125 
z
M 2175 1050 
L 2175 1550 
Q 2025 1500 1887 1462 
Q 1750 1425 1425 1375 
Q 1050 1325 937 1200 
Q 825 1075 825 900 
Q 825 750 937 637 
Q 1050 525 1275 525 
Q 1500 525 1762 650 
Q 2025 775 2175 1050 
z
" transform="scale(0.015625)"/>
       <path id="SimHei-6c" d="M 1825 125 
L 1325 125 
L 1325 4400 
L 1825 4400 
L 1825 125 
z
" transform="scale(0.015625)"/>
      </defs>
      <use xlink:href="#SimHei-72"/>
      <use xlink:href="#SimHei-65" x="50"/>
      <use xlink:href="#SimHei-61" x="100"/>
      <use xlink:href="#SimHei-6c" x="150"/>
     </g>
    </g>
    <g id="line2d_22">
     <path d="M 451.4 68.95 
L 461.4 68.95 
L 471.4 68.95 
" style="fill: none; stroke: #1f77b4; stroke-width: 1.5; stroke-linecap: square"/>
    </g>
    <g id="text_17">
     <!-- GAT -->
     <g transform="translate(479.4 72.45) scale(0.1 -0.1)">
      <defs>
       <path id="SimHei-47" d="M 2850 75 
L 2425 75 
L 2350 425 
Q 2250 275 2037 175 
Q 1825 75 1575 75 
Q 1050 75 637 562 
Q 225 1050 225 2125 
Q 225 3300 600 3875 
Q 975 4450 1625 4450 
Q 2200 4450 2525 4025 
Q 2850 3600 2850 2925 
L 2300 2925 
Q 2300 3450 2125 3712 
Q 1950 3975 1625 3975 
Q 1225 3975 1025 3562 
Q 825 3150 825 2175 
Q 825 1250 1075 900 
Q 1325 550 1650 550 
Q 1975 550 2162 787 
Q 2350 1025 2350 1525 
L 2350 1800 
L 1575 1800 
L 1575 2275 
L 2850 2275 
L 2850 75 
z
" transform="scale(0.015625)"/>
       <path id="SimHei-41" d="M 3075 125 
L 2475 125 
L 2125 1450 
L 1025 1450 
L 675 125 
L 75 125 
L 1325 4450 
L 1825 4450 
L 3075 125 
z
M 2000 1925 
L 1600 3450 
L 1550 3450 
L 1150 1925 
L 2000 1925 
z
" transform="scale(0.015625)"/>
       <path id="SimHei-54" d="M 2850 3925 
L 1850 3925 
L 1850 125 
L 1275 125 
L 1275 3925 
L 275 3925 
L 275 4400 
L 2850 4400 
L 2850 3925 
z
" transform="scale(0.015625)"/>
      </defs>
      <use xlink:href="#SimHei-47"/>
      <use xlink:href="#SimHei-41" x="50"/>
      <use xlink:href="#SimHei-54" x="100"/>
     </g>
    </g>
    <g id="line2d_23">
     <path d="M 451.4 82.2 
L 461.4 82.2 
L 471.4 82.2 
" style="fill: none; stroke: #ff7f0e; stroke-width: 1.5; stroke-linecap: square"/>
    </g>
    <g id="text_18">
     <!-- GCN -->
     <g transform="translate(479.4 85.7) scale(0.1 -0.1)">
      <defs>
       <path id="SimHei-43" d="M 2975 1825 
Q 2950 875 2575 475 
Q 2200 75 1675 75 
Q 1075 75 650 562 
Q 225 1050 225 2125 
Q 225 3300 637 3875 
Q 1050 4450 1700 4450 
Q 2250 4450 2612 4037 
Q 2975 3625 2950 2875 
L 2400 2875 
Q 2400 3425 2225 3700 
Q 2050 3975 1700 3975 
Q 1300 3975 1062 3562 
Q 825 3150 825 2175 
Q 825 1275 1062 912 
Q 1300 550 1675 550 
Q 1950 550 2175 812 
Q 2400 1075 2400 1825 
L 2975 1825 
z
" transform="scale(0.015625)"/>
       <path id="SimHei-4e" d="M 2850 125 
L 2225 125 
L 850 3225 
L 825 3225 
L 825 125 
L 250 125 
L 250 4400 
L 875 4400 
L 2250 1300 
L 2275 1300 
L 2275 4400 
L 2850 4400 
L 2850 125 
z
" transform="scale(0.015625)"/>
      </defs>
      <use xlink:href="#SimHei-47"/>
      <use xlink:href="#SimHei-43" x="50"/>
      <use xlink:href="#SimHei-4e" x="100"/>
     </g>
    </g>
    <g id="line2d_24">
     <path d="M 451.4 95.45 
L 461.4 95.45 
L 471.4 95.45 
" style="fill: none; stroke: #2ca02c; stroke-width: 1.5; stroke-linecap: square"/>
    </g>
    <g id="text_19">
     <!-- GRU -->
     <g transform="translate(479.4 98.95) scale(0.1 -0.1)">
      <defs>
       <path id="SimHei-52" d="M 3000 125 
L 2400 125 
L 1500 1975 
L 850 1975 
L 850 125 
L 275 125 
L 275 4400 
L 1525 4400 
Q 2125 4400 2500 4112 
Q 2875 3825 2875 3175 
Q 2875 2675 2625 2400 
Q 2375 2125 2050 2050 
L 3000 125 
z
M 2300 3175 
Q 2300 3525 2087 3725 
Q 1875 3925 1400 3925 
L 850 3925 
L 850 2450 
L 1550 2450 
Q 1850 2450 2075 2612 
Q 2300 2775 2300 3175 
z
" transform="scale(0.015625)"/>
       <path id="SimHei-55" d="M 2875 1375 
Q 2875 775 2562 425 
Q 2250 75 1575 75 
Q 900 75 587 425 
Q 275 775 275 1375 
L 275 4400 
L 850 4400 
L 850 1375 
Q 850 950 1050 750 
Q 1250 550 1575 550 
Q 1900 550 2100 750 
Q 2300 950 2300 1375 
L 2300 4400 
L 2875 4400 
L 2875 1375 
z
" transform="scale(0.015625)"/>
      </defs>
      <use xlink:href="#SimHei-47"/>
      <use xlink:href="#SimHei-52" x="50"/>
      <use xlink:href="#SimHei-55" x="100"/>
     </g>
    </g>
    <g id="line2d_25">
     <path d="M 451.4 108.7 
L 461.4 108.7 
L 471.4 108.7 
" style="fill: none; stroke: #d62728; stroke-width: 1.5; stroke-linecap: square"/>
    </g>
    <g id="text_20">
     <!-- LSTM -->
     <g transform="translate(479.4 112.2) scale(0.1 -0.1)">
      <defs>
       <path id="SimHei-4c" d="M 2900 125 
L 300 125 
L 300 4400 
L 875 4400 
L 875 600 
L 2900 600 
L 2900 125 
z
" transform="scale(0.015625)"/>
       <path id="SimHei-53" d="M 2900 1325 
Q 2900 750 2537 412 
Q 2175 75 1550 75 
Q 925 75 575 425 
Q 225 775 225 1300 
L 225 1475 
L 800 1475 
L 800 1325 
Q 800 950 1025 750 
Q 1250 550 1550 550 
Q 1950 550 2137 762 
Q 2325 975 2325 1275 
Q 2325 1525 2100 1737 
Q 1875 1950 1450 2125 
Q 850 2350 587 2625 
Q 325 2900 325 3275 
Q 325 3800 687 4125 
Q 1050 4450 1550 4450 
Q 2200 4450 2487 4062 
Q 2775 3675 2775 3225 
L 2200 3225 
Q 2225 3500 2050 3725 
Q 1875 3950 1550 3950 
Q 1250 3950 1075 3787 
Q 900 3625 900 3350 
Q 900 3125 1037 2962 
Q 1175 2800 1750 2575 
Q 2300 2350 2600 2037 
Q 2900 1725 2900 1325 
z
" transform="scale(0.015625)"/>
       <path id="SimHei-4d" d="M 2925 125 
L 2425 125 
L 2425 3175 
L 2375 3175 
L 1775 125 
L 1375 125 
L 775 3175 
L 725 3175 
L 725 125 
L 225 125 
L 225 4400 
L 1000 4400 
L 1550 1575 
L 1600 1575 
L 2150 4400 
L 2925 4400 
L 2925 125 
z
" transform="scale(0.015625)"/>
      </defs>
      <use xlink:href="#SimHei-4c"/>
      <use xlink:href="#SimHei-53" x="50"/>
      <use xlink:href="#SimHei-54" x="100"/>
      <use xlink:href="#SimHei-4d" x="150"/>
     </g>
    </g>
    <g id="line2d_26">
     <path d="M 451.4 121.95 
L 461.4 121.95 
L 471.4 121.95 
" style="fill: none; stroke: #9467bd; stroke-width: 1.5; stroke-linecap: square"/>
    </g>
    <g id="text_21">
     <!-- ASTGCN -->
     <g transform="translate(479.4 125.45) scale(0.1 -0.1)">
      <use xlink:href="#SimHei-41"/>
      <use xlink:href="#SimHei-53" x="50"/>
      <use xlink:href="#SimHei-54" x="100"/>
      <use xlink:href="#SimHei-47" x="150"/>
      <use xlink:href="#SimHei-43" x="200"/>
      <use xlink:href="#SimHei-4e" x="250"/>
     </g>
    </g>
   </g>
  </g>
 </g>
 <defs>
  <clipPath id="p50fb5a7bc0">
   <rect x="72" y="43.2" width="446.4" height="277.2"/>
  </clipPath>
 </defs>
</svg>
